<svg xmlns="http://www.w3.org/2000/svg" viewBox="0 0 1600 900" fill="none">
  <defs>
    <linearGradient id="bg" x1="0" y1="0" x2="1" y2="1">
      <stop offset="0%" stop-color="#0f172a"/>
      <stop offset="100%" stop-color="#1e293b"/>
    </linearGradient>
    <linearGradient id="accent" x1="0" y1="0" x2="1" y2="0">
      <stop offset="0%" stop-color="#f97316"/>
      <stop offset="100%" stop-color="#ef4444"/>
    </linearGradient>
    <linearGradient id="blue" x1="0" y1="0" x2="1" y2="0">
      <stop offset="0%" stop-color="#3b82f6"/>
      <stop offset="100%" stop-color="#06b6d4"/>
    </linearGradient>
    <linearGradient id="card" x1="0" y1="0" x2="0" y2="1">
      <stop offset="0%" stop-color="#1e293b"/>
      <stop offset="100%" stop-color="#0f172a"/>
    </linearGradient>
    <linearGradient id="green" x1="0" y1="0" x2="1" y2="0">
      <stop offset="0%" stop-color="#22c55e"/>
      <stop offset="100%" stop-color="#10b981"/>
    </linearGradient>
    <filter id="glow">
      <feGaussianBlur stdDeviation="8" result="blur"/>
      <feMerge><feMergeNode in="blur"/><feMergeNode in="SourceGraphic"/></feMerge>
    </filter>
  </defs>

  <!-- Background -->
  <rect width="1600" height="900" fill="url(#bg)"/>

  <!-- Grid lines -->
  <g opacity="0.05" stroke="#94a3b8">
    <line x1="0" y1="100" x2="1600" y2="100"/>
    <line x1="0" y1="200" x2="1600" y2="200"/>
    <line x1="0" y1="300" x2="1600" y2="300"/>
    <line x1="0" y1="400" x2="1600" y2="400"/>
    <line x1="0" y1="500" x2="1600" y2="500"/>
    <line x1="0" y1="600" x2="1600" y2="600"/>
    <line x1="0" y1="700" x2="1600" y2="700"/>
    <line x1="0" y1="800" x2="1600" y2="800"/>
    <line x1="200" y1="0" x2="200" y2="900"/>
    <line x1="400" y1="0" x2="400" y2="900"/>
    <line x1="600" y1="0" x2="600" y2="900"/>
    <line x1="800" y1="0" x2="800" y2="900"/>
    <line x1="1000" y1="0" x2="1000" y2="900"/>
    <line x1="1200" y1="0" x2="1200" y2="900"/>
    <line x1="1400" y1="0" x2="1400" y2="900"/>
  </g>

  <!-- Sidebar -->
  <rect x="40" y="40" width="240" height="820" rx="16" fill="#1e293b" stroke="#334155" stroke-width="1"/>

  <!-- Sidebar logo -->
  <rect x="64" y="64" width="40" height="40" rx="10" fill="url(#accent)"/>
  <text x="76" y="92" font-family="Arial" font-size="22" font-weight="bold" fill="white">O</text>
  <text x="116" y="92" font-family="Arial" font-size="18" font-weight="bold" fill="#e2e8f0">OpenClaw</text>

  <!-- Sidebar menu items -->
  <rect x="56" y="140" width="208" height="44" rx="10" fill="#3b82f6" opacity="0.15"/>
  <circle cx="80" cy="162" r="8" fill="#3b82f6"/>
  <rect x="100" y="156" width="100" height="12" rx="4" fill="#3b82f6"/>

  <circle cx="80" cy="212" r="8" fill="#475569"/>
  <rect x="100" y="206" width="80" height="12" rx="4" fill="#475569"/>

  <circle cx="80" cy="252" r="8" fill="#475569"/>
  <rect x="100" y="246" width="110" height="12" rx="4" fill="#475569"/>

  <circle cx="80" cy="292" r="8" fill="#475569"/>
  <rect x="100" y="286" width="90" height="12" rx="4" fill="#475569"/>

  <circle cx="80" cy="332" r="8" fill="#475569"/>
  <rect x="100" y="326" width="120" height="12" rx="4" fill="#475569"/>

  <!-- Sidebar divider -->
  <line x1="56" y1="372" x2="264" y2="372" stroke="#334155"/>

  <circle cx="80" cy="402" r="8" fill="#475569"/>
  <rect x="100" y="396" width="70" height="12" rx="4" fill="#475569"/>

  <circle cx="80" cy="442" r="8" fill="#475569"/>
  <rect x="100" y="436" width="100" height="12" rx="4" fill="#475569"/>

  <!-- Main content area -->
  <rect x="310" y="40" width="1250" height="820" rx="16" fill="#0f172a" stroke="#334155" stroke-width="1"/>

  <!-- Top bar -->
  <rect x="340" y="60" width="600" height="14" rx="4" fill="#334155"/>
  <rect x="1380" y="56" width="150" height="28" rx="14" fill="#3b82f6" opacity="0.2"/>
  <rect x="1400" y="64" width="110" height="12" rx="4" fill="#3b82f6"/>

  <!-- Stats cards row -->
  <rect x="340" y="110" width="280" height="130" rx="14" fill="url(#card)" stroke="#334155" stroke-width="1"/>
  <rect x="640" y="110" width="280" height="130" rx="14" fill="url(#card)" stroke="#334155" stroke-width="1"/>
  <rect x="940" y="110" width="280" height="130" rx="14" fill="url(#card)" stroke="#334155" stroke-width="1"/>
  <rect x="1240" y="110" width="280" height="130" rx="14" fill="url(#card)" stroke="#334155" stroke-width="1"/>

  <!-- Card 1 content -->
  <rect x="366" y="132" width="60" height="10" rx="3" fill="#64748b"/>
  <text x="366" y="178" font-family="Arial" font-size="32" font-weight="bold" fill="#f1f5f9">1,247</text>
  <rect x="366" y="196" width="160" height="8" rx="3" fill="#22c55e" opacity="0.3"/>
  <rect x="366" y="196" width="110" height="8" rx="3" fill="#22c55e"/>
  <text x="366" y="222" font-family="Arial" font-size="12" fill="#22c55e">+12.5%</text>

  <!-- Card 2 content -->
  <rect x="666" y="132" width="80" height="10" rx="3" fill="#64748b"/>
  <text x="666" y="178" font-family="Arial" font-size="32" font-weight="bold" fill="#f1f5f9">89.3%</text>
  <rect x="666" y="196" width="160" height="8" rx="3" fill="#3b82f6" opacity="0.3"/>
  <rect x="666" y="196" width="130" height="8" rx="3" fill="#3b82f6"/>
  <text x="666" y="222" font-family="Arial" font-size="12" fill="#3b82f6">+3.2%</text>

  <!-- Card 3 content -->
  <rect x="966" y="132" width="70" height="10" rx="3" fill="#64748b"/>
  <text x="966" y="178" font-family="Arial" font-size="32" font-weight="bold" fill="#f1f5f9">15</text>
  <rect x="966" y="196" width="160" height="8" rx="3" fill="#f97316" opacity="0.3"/>
  <rect x="966" y="196" width="90" height="8" rx="3" fill="#f97316"/>
  <text x="966" y="222" font-family="Arial" font-size="12" fill="#f97316">Active</text>

  <!-- Card 4 content -->
  <rect x="1266" y="132" width="90" height="10" rx="3" fill="#64748b"/>
  <text x="1266" y="178" font-family="Arial" font-size="32" font-weight="bold" fill="#f1f5f9">4.2s</text>
  <rect x="1266" y="196" width="160" height="8" rx="3" fill="#a855f7" opacity="0.3"/>
  <rect x="1266" y="196" width="145" height="8" rx="3" fill="#a855f7"/>
  <text x="1266" y="222" font-family="Arial" font-size="12" fill="#a855f7">-0.8s</text>

  <!-- Chart area -->
  <rect x="340" y="270" width="760" height="360" rx="14" fill="url(#card)" stroke="#334155" stroke-width="1"/>
  <rect x="366" y="292" width="140" height="14" rx="4" fill="#64748b"/>

  <!-- Chart line -->
  <polyline points="400,560 460,530 520,540 580,490 640,500 700,440 760,420 820,380 880,400 940,350 1000,330 1060,360"
    stroke="url(#blue)" stroke-width="3" fill="none" filter="url(#glow)"/>
  <!-- Chart fill -->
  <polygon points="400,560 460,530 520,540 580,490 640,500 700,440 760,420 820,380 880,400 940,350 1000,330 1060,360 1060,580 400,580"
    fill="url(#blue)" opacity="0.08"/>

  <!-- Chart dots -->
  <circle cx="700" cy="440" r="5" fill="#06b6d4"/>
  <circle cx="880" cy="400" r="5" fill="#06b6d4"/>
  <circle cx="1060" cy="360" r="5" fill="#06b6d4"/>

  <!-- Second chart line (orange) -->
  <polyline points="400,570 460,560 520,555 580,540 640,545 700,520 760,510 820,490 880,500 940,480 1000,470 1060,475"
    stroke="url(#accent)" stroke-width="2" fill="none" opacity="0.6"/>

  <!-- Chart X axis labels -->
  <text x="400" y="600" font-family="Arial" font-size="10" fill="#475569">Jan</text>
  <text x="520" y="600" font-family="Arial" font-size="10" fill="#475569">Mar</text>
  <text x="640" y="600" font-family="Arial" font-size="10" fill="#475569">May</text>
  <text x="760" y="600" font-family="Arial" font-size="10" fill="#475569">Jul</text>
  <text x="880" y="600" font-family="Arial" font-size="10" fill="#475569">Sep</text>
  <text x="1000" y="600" font-family="Arial" font-size="10" fill="#475569">Nov</text>

  <!-- Right panel: Agent list -->
  <rect x="1120" y="270" width="400" height="360" rx="14" fill="url(#card)" stroke="#334155" stroke-width="1"/>
  <rect x="1146" y="292" width="120" height="14" rx="4" fill="#64748b"/>

  <!-- Agent items -->
  <rect x="1140" y="326" width="360" height="52" rx="10" fill="#1e293b"/>
  <circle cx="1170" cy="352" r="14" fill="#22c55e" opacity="0.2"/>
  <circle cx="1170" cy="352" r="6" fill="#22c55e"/>
  <rect x="1196" y="342" width="100" height="10" rx="3" fill="#cbd5e1"/>
  <rect x="1196" y="358" width="60" height="8" rx="3" fill="#475569"/>
  <rect x="1430" y="344" width="50" height="16" rx="8" fill="#22c55e" opacity="0.15"/>
  <text x="1443" y="356" font-family="Arial" font-size="9" fill="#22c55e">Online</text>

  <rect x="1140" y="390" width="360" height="52" rx="10" fill="#1e293b"/>
  <circle cx="1170" cy="416" r="14" fill="#3b82f6" opacity="0.2"/>
  <circle cx="1170" cy="416" r="6" fill="#3b82f6"/>
  <rect x="1196" y="406" width="120" height="10" rx="3" fill="#cbd5e1"/>
  <rect x="1196" y="422" width="70" height="8" rx="3" fill="#475569"/>
  <rect x="1430" y="408" width="50" height="16" rx="8" fill="#22c55e" opacity="0.15"/>
  <text x="1443" y="420" font-family="Arial" font-size="9" fill="#22c55e">Online</text>

  <rect x="1140" y="454" width="360" height="52" rx="10" fill="#1e293b"/>
  <circle cx="1170" cy="480" r="14" fill="#f97316" opacity="0.2"/>
  <circle cx="1170" cy="480" r="6" fill="#f97316"/>
  <rect x="1196" y="470" width="90" height="10" rx="3" fill="#cbd5e1"/>
  <rect x="1196" y="486" width="80" height="8" rx="3" fill="#475569"/>
  <rect x="1430" y="472" width="50" height="16" rx="8" fill="#f97316" opacity="0.15"/>
  <text x="1445" y="484" font-family="Arial" font-size="9" fill="#f97316">Busy</text>

  <rect x="1140" y="518" width="360" height="52" rx="10" fill="#1e293b"/>
  <circle cx="1170" cy="544" r="14" fill="#a855f7" opacity="0.2"/>
  <circle cx="1170" cy="544" r="6" fill="#a855f7"/>
  <rect x="1196" y="534" width="110" height="10" rx="3" fill="#cbd5e1"/>
  <rect x="1196" y="550" width="50" height="8" rx="3" fill="#475569"/>
  <rect x="1430" y="536" width="50" height="16" rx="8" fill="#64748b" opacity="0.2"/>
  <text x="1440" y="548" font-family="Arial" font-size="9" fill="#64748b">Offline</text>

  <!-- Bottom cards -->
  <rect x="340" y="660" width="510" height="200" rx="14" fill="url(#card)" stroke="#334155" stroke-width="1"/>
  <rect x="366" y="682" width="100" height="14" rx="4" fill="#64748b"/>

  <!-- Chat messages mockup -->
  <rect x="366" y="714" width="240" height="32" rx="10" fill="#1e293b"/>
  <rect x="380" y="724" width="180" height="10" rx="3" fill="#475569"/>
  <rect x="420" y="758" width="200" height="32" rx="10" fill="#3b82f6" opacity="0.15"/>
  <rect x="434" y="768" width="140" height="10" rx="3" fill="#3b82f6"/>
  <rect x="366" y="802" width="280" height="32" rx="10" fill="#1e293b"/>
  <rect x="380" y="812" width="200" height="10" rx="3" fill="#475569"/>

  <rect x="870" y="660" width="650" height="200" rx="14" fill="url(#card)" stroke="#334155" stroke-width="1"/>
  <rect x="896" y="682" width="120" height="14" rx="4" fill="#64748b"/>

  <!-- Donut chart mockup -->
  <circle cx="980" cy="780" r="40" stroke="#334155" stroke-width="12" fill="none"/>
  <circle cx="980" cy="780" r="40" stroke="#3b82f6" stroke-width="12" fill="none"
    stroke-dasharray="120 252" stroke-dashoffset="0" transform="rotate(-90 980 780)"/>
  <circle cx="980" cy="780" r="40" stroke="#f97316" stroke-width="12" fill="none"
    stroke-dasharray="70 252" stroke-dashoffset="-120" transform="rotate(-90 980 780)"/>
  <circle cx="980" cy="780" r="40" stroke="#22c55e" stroke-width="12" fill="none"
    stroke-dasharray="40 252" stroke-dashoffset="-190" transform="rotate(-90 980 780)"/>

  <!-- Legend -->
  <rect x="1060" y="740" width="10" height="10" rx="2" fill="#3b82f6"/>
  <rect x="1078" y="740" width="80" height="10" rx="3" fill="#475569"/>
  <rect x="1060" y="764" width="10" height="10" rx="2" fill="#f97316"/>
  <rect x="1078" y="764" width="60" height="10" rx="3" fill="#475569"/>
  <rect x="1060" y="788" width="10" height="10" rx="2" fill="#22c55e"/>
  <rect x="1078" y="788" width="70" height="10" rx="3" fill="#475569"/>
  <rect x="1060" y="812" width="10" height="10" rx="2" fill="#334155"/>
  <rect x="1078" y="812" width="50" height="10" rx="3" fill="#475569"/>

  <!-- Decorative glow -->
  <circle cx="800" cy="450" r="300" fill="#3b82f6" opacity="0.02"/>
  <circle cx="1200" cy="300" r="200" fill="#f97316" opacity="0.02"/>
</svg>